<svg width="20" height="21" viewBox="0 0 20 21" fill="none" xmlns="http://www.w3.org/2000/svg">
<path d="M1.03656 19.9985C0.773217 19.9985 0.509875 19.8983 0.309795 19.6967C-0.0918716 19.2951 -0.0918716 18.6439 0.309795 18.2422L18.2442 0.307796C18.6459 -0.0938706 19.2971 -0.0938706 19.6987 0.307796C20.1004 0.709462 20.1004 1.36066 19.6987 1.76258L1.76458 19.6967C1.56299 19.8971 1.29965 19.9985 1.03656 19.9985Z" fill="#7A7A7A"/>
<path d="M18.9722 19.9985C18.7089 19.9985 18.4458 19.8983 18.2454 19.6967L0.309795 1.76258C-0.0918716 1.36066 -0.0918716 0.709462 0.309795 0.307796C0.711461 -0.0938706 1.36266 -0.0938706 1.76458 0.307796L19.6987 18.2422C20.1004 18.6439 20.1004 19.2951 19.6987 19.6967C19.4971 19.8971 19.234 19.9985 18.9722 19.9985Z" fill="#7A7A7A"/>
</svg>
