<svg width="20" height="20" viewBox="0 0 20 20" fill="none" xmlns="http://www.w3.org/2000/svg">
<g clip-path="url(#clip0_84_103)">
<path d="M13.746 19.9993H6.25365C5.50403 19.9885 4.78614 19.695 4.24352 19.1777C3.7009 18.6605 3.37355 17.9574 3.32693 17.2092L2.43915 3.70722C2.4346 3.60933 2.4495 3.5115 2.48299 3.4194C2.51648 3.3273 2.5679 3.24276 2.63427 3.17065C2.70264 3.09593 2.78542 3.0358 2.87763 2.99388C2.96984 2.95197 3.06957 2.92914 3.17083 2.92676H16.8289C16.9292 2.92654 17.0285 2.94695 17.1206 2.98673C17.2127 3.02652 17.2957 3.08482 17.3643 3.15801C17.4329 3.23121 17.4857 3.31773 17.5195 3.41221C17.5533 3.50669 17.5672 3.60711 17.5605 3.70722L16.7118 17.2092C16.6647 17.9641 16.3318 18.6727 15.7809 19.191C15.23 19.7093 14.5024 19.9983 13.746 19.9993ZM3.99032 4.39012L4.74151 17.1213C4.76633 17.5052 4.93653 17.8653 5.21747 18.1281C5.4984 18.3909 5.86895 18.5367 6.25365 18.5359H13.746C14.1301 18.5344 14.4993 18.3878 14.7798 18.1254C15.0602 17.8631 15.2311 17.5044 15.2582 17.1213L16.0484 4.4389L3.99032 4.39012Z" fill="#FF4949"/>
<path d="M18.7802 4.39012H1.21984C1.02579 4.39012 0.83968 4.31303 0.702463 4.17581C0.565247 4.0386 0.488159 3.85249 0.488159 3.65844C0.488159 3.46438 0.565247 3.27828 0.702463 3.14106C0.83968 3.00385 1.02579 2.92676 1.21984 2.92676H18.7802C18.9742 2.92676 19.1603 3.00385 19.2975 3.14106C19.4347 3.27828 19.5118 3.46438 19.5118 3.65844C19.5118 3.85249 19.4347 4.0386 19.2975 4.17581C19.1603 4.31303 18.9742 4.39012 18.7802 4.39012Z" fill="#FF4949"/>
<path d="M12.9268 4.39008H7.07335C6.88009 4.38755 6.69545 4.30965 6.55877 4.17298C6.4221 4.03631 6.3442 3.85167 6.34167 3.6584V1.90237C6.35404 1.40172 6.55844 0.925 6.91256 0.570882C7.26667 0.216765 7.7434 0.0123672 8.24404 0H11.7561C12.2651 0.0127283 12.7489 0.223901 13.1043 0.588441C13.4598 0.952981 13.6586 1.44201 13.6585 1.95115V3.6584C13.6559 3.85167 13.578 4.03631 13.4414 4.17298C13.3047 4.30965 13.1201 4.38755 12.9268 4.39008ZM7.80503 2.92672H12.1951V1.95115C12.1951 1.83471 12.1489 1.72305 12.0665 1.64072C11.9842 1.55839 11.8725 1.51214 11.7561 1.51214H8.24404C8.12761 1.51214 8.01595 1.55839 7.93362 1.64072C7.85129 1.72305 7.80503 1.83471 7.80503 1.95115V2.92672Z" fill="#FF4949"/>
<path d="M12.9269 16.0961C12.7336 16.0935 12.549 16.0156 12.4123 15.879C12.2756 15.7423 12.1977 15.5577 12.1952 15.3644V7.5598C12.1952 7.36575 12.2723 7.17965 12.4095 7.04243C12.5467 6.90521 12.7328 6.82812 12.9269 6.82812C13.1209 6.82812 13.307 6.90521 13.4442 7.04243C13.5815 7.17965 13.6586 7.36575 13.6586 7.5598V15.3644C13.656 15.5577 13.5781 15.7423 13.4415 15.879C13.3048 16.0156 13.1201 16.0935 12.9269 16.0961Z" fill="#FF4949"/>
<path d="M7.07335 16.0961C6.88009 16.0935 6.69545 16.0156 6.55877 15.879C6.4221 15.7423 6.3442 15.5577 6.34167 15.3644V7.5598C6.34167 7.36575 6.41876 7.17965 6.55598 7.04243C6.6932 6.90521 6.8793 6.82812 7.07335 6.82812C7.26741 6.82812 7.45351 6.90521 7.59073 7.04243C7.72795 7.17965 7.80503 7.36575 7.80503 7.5598V15.3644C7.80251 15.5577 7.72461 15.7423 7.58794 15.879C7.45126 16.0156 7.26662 16.0935 7.07335 16.0961Z" fill="#FF4949"/>
<path d="M10.0001 16.0961C9.80684 16.0935 9.6222 16.0156 9.48553 15.879C9.34886 15.7423 9.27096 15.5577 9.26843 15.3644V7.5598C9.26843 7.36575 9.34552 7.17965 9.48274 7.04243C9.61995 6.90521 9.80606 6.82812 10.0001 6.82812C10.1942 6.82812 10.3803 6.90521 10.5175 7.04243C10.6547 7.17965 10.7318 7.36575 10.7318 7.5598V15.3644C10.7293 15.5577 10.6514 15.7423 10.5147 15.879C10.378 16.0156 10.1934 16.0935 10.0001 16.0961Z" fill="#FF4949"/>
</g>
<defs>
<clipPath id="clip0_84_103">
<rect width="20" height="20" fill="white"/>
</clipPath>
</defs>
</svg>
